<?xml version="1.0" encoding="UTF-8" standalone="no"?>
<!DOCTYPE svg PUBLIC "-//W3C//DTD SVG 1.1//EN" "http://www.w3.org/Graphics/SVG/1.1/DTD/svg11.dtd">
<svg width="100%" height="100%" viewBox="0 0 1271 349" version="1.1" xmlns="http://www.w3.org/2000/svg" xmlns:xlink="http://www.w3.org/1999/xlink" xml:space="preserve" xmlns:serif="http://www.serif.com/" style="fill-rule:evenodd;clip-rule:evenodd;stroke-linejoin:round;stroke-miterlimit:2;">
    <g transform="matrix(1,0,0,1,-237.909,-1037.34)">
        <g id="Artboard2" transform="matrix(1.05284,0,0,1.21652,-52.9367,-266.082)">
            <rect x="276.249" y="1071.44" width="1206.81" height="286.708" style="fill:none;"/>
            <g id="_-Group-" serif:id="(Group)" transform="matrix(0.985547,0,0,0.822019,-53.0429,744.618)">
                <path d="M506.581,694.088C504.469,693.896 502.357,693.752 500.245,693.656C498.133,693.56 496.021,693.512 493.909,693.512C488.533,693.512 483.013,693.656 477.349,693.944C471.685,694.232 465.973,694.376 460.213,694.376C450.997,694.376 441.829,693.704 432.709,692.36C423.589,691.016 414.997,687.848 406.933,682.856C400.213,679.592 394.549,675.512 389.941,670.616C385.333,665.72 381.349,660.392 377.989,654.632C374.629,648.872 371.749,642.776 369.349,636.344C366.949,629.912 364.789,623.432 362.869,616.904C361.525,609.608 360.853,601.928 360.853,593.864C360.853,587.528 361.381,581.528 362.437,575.864C363.493,570.2 365.077,564.392 367.189,558.44C368.149,555.56 369.397,552.728 370.933,549.944C372.469,547.16 374.005,544.424 375.541,541.736C375.925,540.776 376.501,540.008 377.269,539.432C378.037,538.856 378.613,538.088 378.997,537.128C380.149,535.016 381.253,533.048 382.309,531.224C383.365,529.4 384.565,527.432 385.909,525.32C387.445,523.016 388.981,521.048 390.517,519.416C392.053,517.784 393.973,516.008 396.277,514.088L397.429,512.936C399.349,510.824 401.413,508.952 403.621,507.32C405.829,505.688 407.893,503.912 409.813,501.992C414.613,498.728 420.949,495.224 428.821,491.48C436.693,487.736 444.181,483.656 451.285,479.24C452.437,479.24 453.781,478.952 455.317,478.376C456.853,477.8 458.101,477.224 459.061,476.648L475.189,476.648C476.917,477.224 478.693,477.608 480.517,477.8C482.341,477.992 484.117,478.376 485.845,478.952C491.413,481.064 496.549,484.376 501.253,488.888C505.957,493.4 509.077,498.536 510.613,504.296C511.381,506.984 511.861,509.672 512.053,512.36C512.245,515.048 512.629,517.736 513.205,520.424C513.589,520.808 513.829,521.384 513.925,522.152C514.021,522.92 514.069,523.784 514.069,524.744L514.069,526.76C514.453,527.72 514.789,528.632 515.077,529.496C515.365,530.36 515.509,531.464 515.509,532.808C515.509,533 515.461,533.48 515.365,534.248C515.269,535.016 515.221,535.592 515.221,535.976C515.221,536.36 515.269,536.744 515.365,537.128C515.461,537.512 515.509,537.992 515.509,538.568C515.509,538.76 515.413,539.432 515.221,540.584C515.029,541.736 514.789,542.984 514.501,544.328C514.213,545.672 513.877,546.872 513.493,547.928C513.109,548.984 512.725,549.512 512.341,549.512C511.765,549.512 510.661,549.368 509.029,549.08C507.397,548.792 506.581,548.168 506.581,547.208L504.853,547.208C501.973,547.208 499.189,547.64 496.501,548.504C493.813,549.368 491.125,549.8 488.437,549.8C487.477,549.8 486.469,549.656 485.413,549.368C484.357,549.08 483.253,548.936 482.101,548.936C481.525,549.512 480.949,549.8 480.373,549.8C479.605,549.8 479.029,549.224 478.645,548.072C478.261,546.92 477.781,546.152 477.205,545.768C476.629,545.768 476.053,545.72 475.477,545.624C474.901,545.528 474.421,545.288 474.037,544.904L474.037,541.448C474.037,539.144 474.085,536.888 474.181,534.68C474.277,532.472 474.325,530.12 474.325,527.624C474.325,525.128 474.277,522.968 474.181,521.144C474.085,519.32 473.701,517.736 473.029,516.392C472.357,515.048 471.397,513.848 470.149,512.792C468.901,511.736 467.125,510.536 464.821,509.192C463.861,508.424 462.613,507.752 461.077,507.176C459.541,506.6 458.101,506.312 456.757,506.312C453.109,506.504 449.173,508.568 444.949,512.504C440.725,516.44 436.645,521.048 432.709,526.328C428.773,531.608 425.173,536.984 421.909,542.456C418.645,547.928 416.245,552.392 414.709,555.848C414.325,556.616 413.797,557.336 413.125,558.008C412.453,558.68 411.925,559.4 411.541,560.168C411.157,561.128 410.629,562.52 409.957,564.344C409.285,566.168 408.661,568.088 408.085,570.104C407.509,572.12 406.981,573.992 406.501,575.72C406.021,577.448 405.781,578.6 405.781,579.176L405.781,596.456C406.357,597.992 406.741,599.624 406.933,601.352C407.125,603.08 407.509,604.712 408.085,606.248C408.085,606.44 408.277,606.92 408.661,607.688C409.045,608.456 409.237,608.936 409.237,609.128C409.621,609.512 409.813,609.992 409.813,610.568C410.005,611.912 410.389,613.16 410.965,614.312C411.541,615.464 412.021,616.712 412.405,618.056C414.133,622.664 416.101,626.984 418.309,631.016C420.517,635.048 423.253,638.888 426.517,642.536C428.053,644.072 429.685,645.416 431.413,646.568C433.141,647.72 434.677,649.064 436.021,650.6L443.797,654.632C445.141,655.016 446.389,655.496 447.541,656.072C448.501,656.456 449.413,656.84 450.277,657.224C451.141,657.608 451.765,657.8 452.149,657.8C454.069,658.376 455.845,658.76 457.477,658.952C459.109,659.144 460.885,659.24 462.805,659.24L464.245,659.24C465.205,659.24 466.117,659.192 466.981,659.096C467.845,659 468.469,658.568 468.853,657.8C469.237,655.88 469.429,654.392 469.429,653.336L469.429,649.448C469.429,647.144 469.285,644.888 468.997,642.68C468.709,640.472 468.565,638.312 468.565,636.2L468.565,618.056C468.565,616.904 468.085,616.04 467.125,615.464C466.165,614.888 465.109,614.408 463.957,614.024C462.805,613.64 461.749,613.16 460.789,612.584C459.829,612.2 458.965,611.576 458.197,610.712C457.429,609.848 456.373,609.416 455.029,609.416C452.149,609.416 448.981,610.184 445.525,611.72C442.069,613.256 438.805,614.024 435.733,614.024C434.773,614.024 433.717,613.832 432.565,613.448C431.413,613.064 430.837,612.2 430.837,610.856C430.837,605.864 432.133,601.112 434.725,596.6C437.317,592.088 439.957,587.624 442.645,583.208L443.797,583.208C445.717,583.208 447.589,582.968 449.413,582.488C451.237,582.008 452.917,581.576 454.453,581.192C456.565,580.424 459.589,579.656 463.525,578.888C467.461,578.12 470.773,577.736 473.461,577.736C475.573,577.736 476.917,577.928 477.493,578.312C478.069,578.312 479.365,578.36 481.381,578.456C483.397,578.552 485.509,578.792 487.717,579.176C489.925,579.56 491.941,580.04 493.765,580.616C495.589,581.192 496.501,582.056 496.501,583.208C498.613,584.744 500.485,586.472 502.117,588.392C503.749,590.312 505.045,592.424 506.005,594.728C507.541,598.568 508.357,602.792 508.453,607.4C508.549,612.008 509.461,616.328 511.189,620.36C511.189,620.744 511.237,621.032 511.333,621.224C511.429,621.416 511.477,621.704 511.477,622.088C512.245,629.384 512.773,636.632 513.061,643.832C513.349,651.032 513.493,658.28 513.493,665.576L514.645,665.576C514.645,665.96 514.549,666.776 514.357,668.024C514.165,669.272 513.973,670.088 513.781,670.472C513.781,670.856 513.589,671.24 513.205,671.624L513.205,676.808C513.205,678.536 513.301,680.216 513.493,681.848C513.685,683.48 513.781,685.16 513.781,686.888L513.781,688.328C513.589,689.288 513.349,690.536 513.061,692.072C512.773,693.608 512.533,694.472 512.341,694.664C510.997,696.008 510.181,696.776 509.893,696.968C509.605,697.16 509.365,697.256 509.173,697.256C508.213,697.256 507.637,696.872 507.445,696.104C507.253,695.336 506.965,694.664 506.581,694.088Z" style="fill-rule:nonzero;"/>
                <path d="M655.477,672.488C655.093,672.104 654.277,671.624 653.029,671.048C651.781,670.472 650.677,669.992 649.717,669.608L648.565,669.608L648.277,668.456C647.893,667.496 647.365,666.776 646.693,666.296C646.021,665.816 645.589,665.096 645.397,664.136L642.805,655.208C642.805,654.248 642.613,653.768 642.229,653.768C641.269,648.392 640.597,643.016 640.213,637.64C639.829,632.264 639.253,626.984 638.485,621.8C638.485,621.416 638.437,620.648 638.341,619.496C638.245,618.344 638.101,617.096 637.909,615.752C637.717,614.408 637.573,613.208 637.477,612.152C637.381,611.096 637.333,610.376 637.333,609.992L637.333,608.264C636.949,608.264 636.613,608.216 636.325,608.12C636.037,608.024 635.701,607.976 635.317,607.976C635.317,607.976 634.933,608.168 634.165,608.552C633.781,608.552 632.629,608.504 630.709,608.408C628.789,608.312 627.541,608.264 626.965,608.264L625.813,608.264C624.277,608.264 623.269,608.696 622.789,609.56C622.309,610.424 621.301,610.952 619.765,611.144C618.613,611.336 617.509,611.432 616.453,611.432L606.517,611.432C601.909,611.432 597.589,611.72 593.557,612.296C592.021,616.136 590.485,619.736 588.949,623.096C587.413,626.456 585.877,629.96 584.341,633.608C583.381,639.368 581.845,643.928 579.733,647.288C577.621,650.648 575.173,653.192 572.389,654.92C569.605,656.648 566.725,657.8 563.749,658.376C560.773,658.952 557.941,659.24 555.253,659.24C554.293,659.24 553.429,659.192 552.661,659.096C551.893,659 551.221,658.952 550.645,658.952L547.189,658.952C544.885,658.952 543.637,659.336 543.445,660.104C543.445,659.528 542.965,659.144 542.005,658.952C542.005,658.184 541.621,657.8 540.853,657.8C540.085,657.8 539.605,658.184 539.413,658.952C539.029,658.376 538.405,657.944 537.541,657.656C536.677,657.368 535.861,657.128 535.093,656.936L534.805,656.072C534.805,655.112 534.517,653.864 533.941,652.328L532.789,653.48C532.789,649.448 533.221,645.368 534.085,641.24C534.949,637.112 536.149,633.128 537.685,629.288L570.805,544.904L571.093,544.04L575.125,532.808C575.893,531.848 576.373,530.792 576.565,529.64C576.757,528.488 577.045,527.432 577.429,526.472L584.341,509.768C585.301,508.808 585.877,507.752 586.069,506.6C586.261,505.448 586.741,504.296 587.509,503.144C588.085,502.376 588.757,501.512 589.525,500.552C590.293,499.592 591.493,498.344 593.125,496.808C594.757,495.272 596.869,493.352 599.461,491.048C602.053,488.744 605.557,485.768 609.973,482.12C610.741,481.16 612.037,480.44 613.861,479.96C615.685,479.48 617.653,479.24 619.765,479.24C620.533,479.24 621.685,479.288 623.221,479.384C624.757,479.48 626.293,479.672 627.829,479.96C629.365,480.248 630.757,480.632 632.005,481.112C633.253,481.592 633.973,482.312 634.165,483.272C634.741,483.272 635.029,483.368 635.029,483.56C635.029,483.944 635.605,484.136 636.757,484.136C641.749,485.48 645.685,488.264 648.565,492.488C649.333,492.68 650.245,494.312 651.301,497.384C652.357,500.456 653.413,503.864 654.469,507.608C655.525,511.352 656.533,514.808 657.493,517.976C658.453,521.144 659.221,522.92 659.797,523.304L659.797,524.744C659.797,525.128 659.845,525.704 659.941,526.472C660.037,527.24 660.181,527.624 660.373,527.624C660.565,530.12 661.141,532.616 662.101,535.112C663.061,537.608 664.069,540.104 665.125,542.6C666.181,545.096 667.141,547.544 668.005,549.944C668.869,552.344 669.301,554.792 669.301,557.288C669.301,557.672 669.397,558.056 669.589,558.44C669.781,558.824 669.973,559.208 670.165,559.592C670.357,560.552 670.693,561.752 671.173,563.192C671.653,564.632 672.085,566.216 672.469,567.944C672.853,569.672 673.237,571.352 673.621,572.984C674.005,574.616 674.197,575.912 674.197,576.872L678.805,602.216L678.805,603.656C678.805,606.344 679.093,609.128 679.669,612.008C680.245,614.888 680.725,617.672 681.109,620.36L681.685,636.2C681.685,636.584 681.541,638.312 681.253,641.384C680.965,644.456 679.957,648.008 678.229,652.04C676.501,656.072 673.861,660.056 670.309,663.992C666.757,667.928 661.813,670.76 655.477,672.488ZM619.477,537.704C618.709,540.392 617.941,542.936 617.173,545.336C616.405,547.736 615.637,550.184 614.869,552.68C613.909,556.136 612.949,559.64 611.989,563.192C611.029,566.744 609.973,570.248 608.821,573.704C608.053,575.624 607.189,577.544 606.229,579.464C605.269,581.384 604.789,583.4 604.789,585.512C608.053,585.512 611.317,585.272 614.581,584.792C617.845,584.312 621.109,584.072 624.373,584.072L625.813,584.072C626.197,584.264 627.109,584.408 628.549,584.504C629.989,584.6 630.901,584.648 631.285,584.648C631.669,584.648 632.101,584.6 632.581,584.504C633.061,584.408 633.301,584.168 633.301,583.784C633.301,583.784 633.061,582.968 632.581,581.336C632.101,579.704 631.573,577.832 630.997,575.72C630.421,573.608 629.797,571.4 629.125,569.096C628.453,566.792 627.925,564.872 627.541,563.336L625.813,559.592C624.853,556.328 623.989,553.016 623.221,549.656C622.453,546.296 621.685,542.888 620.917,539.432C620.917,539.24 620.821,538.904 620.629,538.424C620.437,537.944 620.053,537.704 619.477,537.704Z" style="fill-rule:nonzero;"/>
                <path d="M710.773,695.816C710.389,695.816 710.197,695.528 710.197,694.952C710.197,695.336 709.909,695.528 709.333,695.528C706.645,695.528 704.437,694.712 702.709,693.08C700.981,691.448 699.733,689.384 698.965,686.888L698.965,681.416C698.965,677.384 699.061,673.256 699.253,669.032C699.445,664.808 699.637,660.2 699.829,655.208C699.829,655.016 699.877,654.392 699.973,653.336C700.069,652.28 700.117,651.128 700.117,649.88C700.117,648.632 700.165,647.528 700.261,646.568C700.357,645.608 700.405,644.936 700.405,644.552L700.693,641.672L700.693,627.56C700.885,626.024 701.077,624.44 701.269,622.808C701.461,621.176 701.557,619.688 701.557,618.344C701.365,618.344 701.269,618.248 701.269,618.056L701.269,610.856C701.269,607.784 701.461,604.664 701.845,601.496C702.229,598.328 703.189,595.688 704.725,593.576L704.725,593.864C704.725,594.056 704.821,594.248 705.013,594.44C704.629,597.512 704.341,601.016 704.149,604.952C703.957,608.888 703.717,613.016 703.429,617.336C703.141,621.656 702.949,625.976 702.853,630.296C702.757,634.616 702.709,638.792 702.709,642.824C702.709,648.2 702.853,652.856 703.141,656.792C703.429,660.728 704.053,663.464 705.013,665C704.437,662.696 704.149,660.2 704.149,657.512C704.149,654.056 704.389,650.456 704.869,646.712C705.349,642.968 705.685,639.368 705.877,635.912C706.261,635.912 706.453,635.624 706.453,635.048C706.453,618.536 707.605,601.16 709.909,582.92C709.141,582.152 708.757,581 708.757,579.464C708.757,578.12 708.901,576.632 709.189,575C709.477,573.368 709.717,571.976 709.909,570.824C709.909,567.368 709.429,563.816 708.469,560.168C707.509,556.52 706.741,554.696 706.165,554.696C705.781,554.696 705.589,555.848 705.589,558.152L705.589,561.176C705.589,562.232 705.685,563.528 705.877,565.064C705.877,566.6 705.925,568.472 706.021,570.68C706.117,572.888 706.165,575.24 706.165,577.736C706.165,581 705.973,584.072 705.589,586.952C705.205,589.832 704.437,592.04 703.285,593.576C703.093,593.576 702.997,593.48 702.997,593.288L702.997,592.712C703.957,591.176 704.581,588.776 704.869,585.512C705.157,582.248 705.301,578.792 705.301,575.144C705.301,571.688 705.205,568.376 705.013,565.208C704.821,562.04 704.533,559.688 704.149,558.152C703.957,556.616 703.861,554.984 703.861,553.256L703.861,548.072C703.861,538.856 704.389,529.496 705.445,519.992C706.501,510.488 707.701,500.936 709.045,491.336C709.237,491.144 709.621,490.568 710.197,489.608C710.581,489.608 710.773,489.8 710.773,490.184L710.773,497.96C710.773,498.92 710.869,499.976 711.061,501.128L711.925,501.992L712.789,501.128C712.981,500.36 713.077,499.592 713.077,498.824L713.077,496.952C713.077,496.28 713.173,495.656 713.365,495.08L713.365,492.776C713.365,491.048 713.269,489.368 713.077,487.736C712.885,486.104 712.789,484.424 712.789,482.696L712.789,480.968L711.925,479.24L711.925,473.48L713.941,471.752L721.717,463.976C723.829,462.056 725.749,460.28 727.477,458.648C729.205,457.016 730.261,456.104 730.645,455.912C731.797,455.912 732.805,456.488 733.669,457.64C734.533,458.792 735.301,460.136 735.973,461.672C736.645,463.208 737.221,464.792 737.701,466.424C738.181,468.056 738.613,469.256 738.997,470.024C739.189,470.984 739.621,471.8 740.293,472.472C740.965,473.144 741.493,473.864 741.877,474.632C743.797,483.848 745.093,493.016 745.765,502.136C746.437,511.256 746.773,520.52 746.773,529.928C746.773,548.168 746.005,566.408 744.469,584.648C742.933,602.888 742.165,621.224 742.165,639.656C742.165,641.768 742.213,643.736 742.309,645.56C742.405,647.384 742.453,649.352 742.453,651.464C742.453,652.616 742.357,653.72 742.165,654.776C741.973,655.832 741.877,656.84 741.877,657.8C741.877,658.952 742.597,659.48 744.037,659.384C745.477,659.288 746.581,659.432 747.349,659.816C747.925,659.816 749.077,659.864 750.805,659.96C752.533,660.056 753.589,660.104 753.973,660.104L758.005,660.104C762.805,660.104 767.605,659.864 772.405,659.384C777.205,658.904 782.485,657.992 788.245,656.648L795.733,656.648C796.693,657.992 797.557,659.24 798.325,660.392C798.901,661.352 799.429,662.264 799.909,663.128C800.389,663.992 800.725,664.616 800.917,665L800.917,666.44L801.781,666.728C801.973,667.304 802.453,668.168 803.221,669.32C803.989,670.472 804.805,671.672 805.669,672.92C806.533,674.168 807.349,675.464 808.117,676.808C808.885,678.152 809.269,679.4 809.269,680.552C809.269,682.088 808.405,683.24 806.677,684.008C806.101,684.008 805.717,684.104 805.525,684.296C796.501,688.712 786.133,691.736 774.421,693.368C762.709,695 749.941,696.488 736.117,697.832L730.933,698.408C723.829,698.408 717.109,697.544 710.773,695.816Z" style="fill-rule:nonzero;"/>
                <path d="M806.101,644.264L806.101,638.792C806.101,637.256 806.053,635.624 805.957,633.896C805.861,632.168 805.429,630.536 804.661,629C804.277,627.848 803.701,625.256 802.933,621.224C802.165,617.192 801.397,613.016 800.629,608.696C799.861,604.376 799.189,600.488 798.613,597.032C798.037,593.576 797.653,591.848 797.461,591.848C796.501,585.128 795.685,578.36 795.013,571.544C794.341,564.728 793.813,557.96 793.429,551.24C793.045,547.976 792.517,544.568 791.845,541.016C791.173,537.464 790.837,534.056 790.837,530.792L790.837,529.352L789.973,524.168L789.973,523.016C789.973,521.48 789.589,519.752 788.821,517.832C788.053,515.912 787.669,513.896 787.669,511.784C787.669,511.592 788.005,511.304 788.677,510.92C789.349,510.536 789.781,510.248 789.973,510.056L806.965,494.504C807.541,493.928 807.733,493.304 807.541,492.632C807.349,491.96 807.637,491.336 808.405,490.76C809.365,490.184 810.613,489.608 812.149,489.032C813.685,488.456 814.453,487.592 814.453,486.44C815.989,485.672 818.053,485 820.645,484.424C823.237,483.848 825.877,483.416 828.565,483.128C831.253,482.84 833.797,482.648 836.197,482.552C838.597,482.456 840.373,482.408 841.525,482.408C844.597,482.408 847.765,482.648 851.029,483.128C854.293,483.608 858.133,483.848 862.549,483.848L865.141,483.848C865.717,483.848 867.061,483.8 869.173,483.704C871.285,483.608 873.589,483.512 876.085,483.416C878.581,483.32 880.885,483.224 882.997,483.128C885.109,483.032 886.453,482.984 887.029,482.984L889.909,482.984C894.325,482.984 899.077,483.176 904.165,483.56C909.253,483.944 913.813,484.904 917.845,486.44C917.845,487.208 918.085,487.784 918.565,488.168C919.045,488.552 919.573,488.888 920.149,489.176C920.725,489.464 921.253,489.8 921.733,490.184C922.213,490.568 922.453,491.144 922.453,491.912C921.109,491.912 919.717,491.768 918.277,491.48C916.837,491.192 915.349,491.048 913.813,491.048C911.893,491.048 910.933,491.72 910.933,493.064C910.933,493.832 911.653,494.504 913.093,495.08C914.533,495.656 915.445,495.944 915.829,495.944C915.829,496.328 916.165,496.568 916.837,496.664C917.509,496.76 917.845,497 917.845,497.384C916.309,497.384 915.349,497.528 914.965,497.816C914.581,498.104 914.197,498.728 913.813,499.688C914.197,499.688 914.389,499.88 914.389,500.264C914.389,500.648 914.005,500.888 913.237,500.984C912.469,501.08 911.653,501.176 910.789,501.272C909.925,501.368 909.109,501.512 908.341,501.704C907.573,501.896 907.093,502.28 906.901,502.856L908.341,502.856C908.341,503.432 908.101,503.864 907.621,504.152C907.141,504.44 906.901,504.968 906.901,505.736C906.901,506.504 907.285,506.84 908.053,506.744C908.821,506.648 909.397,506.792 909.781,507.176C908.053,507.368 905.413,507.512 901.861,507.608C898.309,507.704 895.765,508.04 894.229,508.616C893.653,508.616 893.365,509.192 893.365,510.344C893.365,511.112 892.885,511.496 891.925,511.496C887.509,512.264 883.045,512.744 878.533,512.936C874.021,513.128 869.557,513.512 865.141,514.088C862.453,514.28 859.573,514.664 856.501,515.24C853.429,515.816 850.645,516.2 848.149,516.392L845.845,516.392C843.733,516.584 841.861,516.824 840.229,517.112C838.597,517.4 836.725,518.216 834.613,519.56C834.613,519.944 834.853,521.144 835.333,523.16C835.813,525.176 836.245,526.184 836.629,526.184C836.821,527.72 837.061,529.208 837.349,530.648C837.637,532.088 837.973,533.576 838.357,535.112C838.357,535.304 838.453,535.64 838.645,536.12C838.837,536.6 839.221,536.936 839.797,537.128C841.333,537.128 842.965,536.84 844.693,536.264C846.421,535.688 848.053,535.304 849.589,535.112C857.653,533.576 865.669,532.328 873.637,531.368C881.605,530.408 889.717,529.928 897.973,529.928L905.173,542.888L899.701,554.408C898.741,554.6 897.877,554.888 897.109,555.272C896.341,555.656 893.941,556.04 889.909,556.424C888.181,556.424 887.029,556.712 886.453,557.288C885.877,557.864 884.917,558.344 883.573,558.728C882.613,559.112 881.269,559.544 879.541,560.024C877.813,560.504 875.941,560.984 873.925,561.464C871.909,561.944 869.989,562.376 868.165,562.76C866.341,563.144 864.949,563.336 863.989,563.336C863.221,563.336 861.781,563.528 859.669,563.912C857.557,564.296 855.349,564.728 853.045,565.208C850.741,565.688 848.629,566.216 846.709,566.792C844.789,567.368 843.637,567.848 843.253,568.232L843.253,569.96C843.253,572.072 843.541,574.088 844.117,576.008C844.693,577.928 844.981,579.944 844.981,582.056L844.981,583.496L851.317,615.176L865.141,615.176C868.597,614.408 872.197,613.928 875.941,613.736C879.685,613.544 883.285,613.256 886.741,612.872C890.197,612.488 893.557,612.008 896.821,611.432C900.085,610.856 903.349,610.568 906.613,610.568L908.629,610.568C908.821,610.952 909.397,611.144 910.357,611.144C911.317,611.144 912.997,611.192 915.397,611.288C917.797,611.384 919.381,611.624 920.149,612.008C920.149,612.968 920.629,613.832 921.589,614.6C922.549,615.368 923.029,615.944 923.029,616.328C922.261,616.52 921.301,616.664 920.149,616.76C918.997,616.856 918.133,617.096 917.557,617.48L918.997,618.632C917.845,621.896 916.837,624.776 915.973,627.272C915.109,629.768 913.813,632.12 912.085,634.328C910.357,636.536 907.813,638.648 904.453,640.664C901.093,642.68 896.245,644.744 889.909,646.856C888.949,647.24 888.277,647.72 887.893,648.296C887.509,648.872 886.933,649.352 886.165,649.736C883.477,649.736 881.461,649.928 880.117,650.312C878.773,650.696 876.757,651.08 874.069,651.464C873.685,651.464 873.109,651.512 872.341,651.608C871.573,651.704 871.093,651.752 870.901,651.752L859.957,651.752C859.765,651.944 859.477,652.04 859.093,652.04C858.901,652.04 858.709,652.136 858.517,652.328L815.605,656.936C815.413,657.128 814.981,657.464 814.309,657.944C813.637,658.424 813.109,658.664 812.725,658.664C812.533,658.472 812.341,658.376 812.149,658.376C811.573,658.376 811.189,658.28 810.997,658.088L806.101,644.264ZM874.645,450.728C875.605,453.416 876.949,455.816 878.677,457.928C880.405,460.04 881.749,462.248 882.709,464.552L878.677,466.28L870.901,463.688C868.021,462.344 866.149,461.096 865.285,459.944C864.421,458.792 862.933,458.216 860.821,458.216C856.021,456.68 852.421,455.432 850.021,454.472C847.621,453.512 845.701,452.696 844.261,452.024C842.821,451.352 841.477,450.776 840.229,450.296C838.981,449.816 837.205,449.384 834.901,449C831.637,447.08 828.805,445.544 826.405,444.392C824.005,443.24 822.421,441.608 821.653,439.496C821.077,437.768 820.789,436.424 820.789,435.464C820.789,434.504 820.885,433.688 821.077,433.016C821.269,432.344 821.557,431.336 821.941,429.992L826.261,423.944C826.261,423.56 826.597,423.224 827.269,422.936C827.941,422.648 828.469,422.408 828.853,422.216C829.237,422.408 829.717,422.504 830.293,422.504C831.061,422.504 832.021,422.312 833.173,421.928C834.325,421.544 835.189,421.352 835.765,421.352C837.301,421.352 838.693,421.736 839.941,422.504C841.189,423.272 842.437,424.136 843.685,425.096C844.933,426.056 846.133,426.968 847.285,427.832C848.437,428.696 849.589,429.224 850.741,429.416L861.973,438.344C865.237,440.84 867.925,443.144 870.037,445.256C872.149,447.368 873.685,449.192 874.645,450.728Z" style="fill-rule:nonzero;"/>
                <path d="M1000.79,451.88C1008.66,452.072 1015.62,453.128 1021.67,455.048C1027.72,456.968 1032.85,459.08 1037.08,461.384C1041.3,463.688 1044.52,465.848 1046.72,467.864C1048.93,469.88 1050.23,471.176 1050.61,471.752C1053.68,475.784 1056.42,479.96 1058.82,484.28C1061.22,488.6 1062.42,493.352 1062.42,498.536C1062.42,499.496 1062.37,500.456 1062.28,501.416C1062.18,502.376 1062.04,503.336 1061.85,504.296C1061.85,504.68 1061.8,505.16 1061.7,505.736C1061.61,506.312 1061.37,506.792 1060.98,507.176L1061.56,508.616C1061.56,510.728 1060.98,513.176 1059.83,515.96C1058.68,518.744 1057.43,520.904 1056.09,522.44C1055.7,523.016 1055.27,523.448 1054.79,523.736C1054.31,524.024 1053.88,524.36 1053.49,524.744C1052.92,525.512 1052.53,526.184 1052.34,526.76C1052.15,527.336 1051.86,528.104 1051.48,529.064L1051.48,530.216C1049.94,537.512 1047.73,544.136 1044.85,550.088C1041.97,556.04 1038.76,561.368 1035.2,566.072C1031.65,570.776 1027.96,575.048 1024.12,578.888C1020.28,582.728 1016.63,586.088 1013.17,588.968C1014.71,590.312 1016.15,591.464 1017.49,592.424C1018.26,593.192 1019.22,593.96 1020.37,594.728C1020.95,595.112 1021.43,595.496 1021.81,595.88C1022.77,597.224 1024.36,598.76 1026.57,600.488C1028.77,602.216 1030.64,603.464 1032.18,604.232L1055.51,626.12C1056.66,626.696 1057.62,627.416 1058.39,628.28C1059.16,629.144 1060.02,630.056 1060.98,631.016C1063.09,632.936 1065.11,634.712 1067.03,636.344C1068.95,637.976 1070.96,639.656 1073.08,641.384L1074.23,642.248L1075.09,645.416C1076.44,646.76 1077.78,648.152 1079.12,649.592C1080.47,651.032 1081.72,652.712 1082.87,654.632C1082.87,655.4 1082.72,656.024 1082.44,656.504C1082.15,656.984 1082.01,657.416 1082.01,657.8C1082.01,658.952 1082.39,659.768 1083.16,660.248C1083.92,660.728 1084.31,661.448 1084.31,662.408C1083.35,662.408 1082.44,661.784 1081.57,660.536C1080.71,659.288 1079.8,658.664 1078.84,658.664C1078.45,658.664 1078.12,659.144 1077.83,660.104C1077.54,661.064 1077.4,661.64 1077.4,661.832C1077.01,662.408 1076.44,662.888 1075.67,663.272C1074.9,663.656 1074.52,664.328 1074.52,665.288L1071.06,665.288C1070.1,665.288 1069.57,666.2 1069.48,668.024C1069.38,669.848 1068.85,670.76 1067.89,670.76C1067.51,670.76 1067.12,670.664 1066.74,670.472C1066.36,670.28 1065.97,670.184 1065.59,670.184C1064.82,670.184 1064.15,670.28 1063.57,670.472C1063,670.664 1062.33,670.76 1061.56,670.76C1060.02,670.76 1058.53,670.28 1057.09,669.32C1055.65,668.36 1054.45,667.496 1053.49,666.728L1052.34,666.728C1051.19,666.728 1050.61,667.4 1050.61,668.744C1050.61,669.704 1051.19,670.376 1052.34,670.76C1053.49,671.144 1054.07,671.816 1054.07,672.776C1050.81,672.776 1047.92,672.152 1045.43,670.904C1042.93,669.656 1040.63,668.072 1038.52,666.152C1036.4,664.232 1034.34,662.264 1032.33,660.248C1030.31,658.232 1028.15,656.36 1025.85,654.632C1024.88,653.864 1024.36,653.096 1024.26,652.328C1024.16,651.56 1023.45,651.08 1022.1,650.888L1013.46,642.248C1012.69,641.864 1011.73,641.144 1010.58,640.088C1009.43,639.032 1008.47,638.12 1007.7,637.352L986.101,618.92C984.757,617.96 983.749,617.144 983.077,616.472C982.405,615.8 981.301,615.464 979.765,615.464C979.765,617.768 980.005,619.928 980.485,621.944C980.965,623.96 981.493,626.12 982.069,628.424C983.797,635.528 985.237,642.92 986.389,650.6C986.773,651.752 987.253,652.952 987.829,654.2C988.405,655.448 988.693,656.84 988.693,658.376C988.693,659.144 988.453,659.912 987.973,660.68C987.493,661.448 987.253,662.216 987.253,662.984C987.253,663.176 987.349,663.32 987.541,663.416C987.733,663.512 987.829,663.752 987.829,664.136C986.869,664.136 986.293,663.8 986.101,663.128C985.909,662.456 985.621,661.832 985.237,661.256C984.853,660.872 984.421,660.248 983.941,659.384C983.461,658.52 983.125,657.8 982.933,657.224C982.933,656.648 982.549,656.36 981.781,656.36C980.821,656.36 980.341,656.696 980.341,657.368C980.341,658.04 980.149,658.568 979.765,658.952C979.189,659.528 978.661,659.912 978.181,660.104C977.701,660.296 977.173,660.536 976.597,660.824C976.021,661.112 975.493,661.544 975.013,662.12C974.533,662.696 974.101,663.656 973.717,665C973.717,665.192 973.669,665.672 973.573,666.44C973.477,667.208 973.429,667.784 973.429,668.168C973.429,668.744 973.333,669.032 973.141,669.032C972.949,669.032 972.805,668.984 972.709,668.888C972.613,668.792 972.373,668.744 971.989,668.744L971.989,672.2L969.397,672.2L969.397,677.96C968.821,675.656 968.437,674.408 968.245,674.216L967.957,673.64C967.189,673.64 966.565,674.6 966.085,676.52C965.605,678.44 965.365,679.592 965.365,679.976C964.981,679.976 964.645,679.784 964.357,679.4C964.069,679.016 963.733,678.824 963.349,678.824C962.581,678.824 962.149,679.304 962.053,680.264C961.957,681.224 961.717,681.704 961.333,681.704C960.757,681.704 960.325,681.416 960.037,680.84C959.749,680.264 959.221,679.976 958.453,679.976C958.261,679.976 958.069,680.168 957.877,680.552C957.685,680.936 957.589,681.32 957.589,681.704L959.029,685.448C958.453,685.448 957.637,684.104 956.581,681.416C955.525,678.728 954.421,675.752 953.269,672.488C952.117,669.224 951.061,666.056 950.101,662.984C949.141,659.912 948.565,657.896 948.373,656.936C948.181,656.168 947.893,654.968 947.509,653.336C947.125,651.704 946.645,649.928 946.069,648.008C945.493,646.088 944.965,644.264 944.485,642.536C944.005,640.808 943.669,639.56 943.477,638.792C943.477,638.408 943.285,637.4 942.901,635.768C942.517,634.136 942.229,633.128 942.037,632.744C942.421,632.36 942.613,631.496 942.613,630.152C942.037,626.312 941.461,622.52 940.885,618.776C940.309,615.032 939.829,611.24 939.445,607.4C939.445,607.016 939.301,605.816 939.013,603.8C938.725,601.784 938.581,600.296 938.581,599.336C937.813,591.464 937.045,583.832 936.277,576.44C935.509,569.048 934.933,561.512 934.549,553.832C934.165,549.8 933.685,545.816 933.109,541.88C932.533,537.944 932.245,533.96 932.245,529.928C932.245,527.24 932.389,524.552 932.677,521.864C932.965,519.176 933.109,516.488 933.109,513.8C933.109,513.416 932.821,512.936 932.245,512.36C931.669,511.784 931.381,511.304 931.381,510.92C931.381,510.536 931.573,509.864 931.957,508.904C932.341,507.944 932.725,507.464 933.109,507.464L933.109,500.264C933.109,497.96 933.397,496.232 933.973,495.08C933.973,495.08 934.069,494.984 934.261,494.792C934.453,494.792 934.645,494.696 934.837,494.504C935.797,493.544 936.181,492.968 935.989,492.776C935.797,492.584 935.893,491.912 936.277,490.76C936.469,490.184 937.093,489.272 938.149,488.024C939.205,486.776 940.309,485.48 941.461,484.136C942.613,482.792 943.669,481.592 944.629,480.536C945.589,479.48 946.261,479.048 946.645,479.24C946.645,479.24 946.837,479.144 947.221,478.952C947.413,478.952 947.509,478.856 947.509,478.664C947.893,478.472 948.229,478.184 948.517,477.8C948.805,477.416 949.141,477.032 949.525,476.648L950.677,475.496L950.677,474.344C951.637,474.344 952.357,474.056 952.837,473.48C953.317,472.904 953.941,472.52 954.709,472.328C957.013,470.216 959.413,468.248 961.909,466.424C964.405,464.6 966.997,463.016 969.685,461.672C969.685,462.056 969.637,462.296 969.541,462.392C969.445,462.488 969.397,462.728 969.397,463.112C969.397,463.112 969.589,463.208 969.973,463.4L970.549,463.4L973.717,461.96C973.909,461.768 974.245,461.432 974.725,460.952C975.205,460.472 975.541,460.232 975.733,460.232C976.501,459.656 977.845,459.08 979.765,458.504C981.685,457.928 982.645,457.16 982.645,456.2C981.109,456.2 979.189,456.92 976.885,458.36C974.581,459.8 972.661,460.52 971.125,460.52C971.509,460.136 972.133,459.704 972.997,459.224C973.861,458.744 974.389,458.408 974.581,458.216L985.237,454.184C986.965,453.608 988.453,453.176 989.701,452.888C990.949,452.6 992.629,452.264 994.741,451.88C994.741,452.264 995.125,452.456 995.893,452.456C996.469,452.456 996.949,452.264 997.333,451.88L1000.79,451.88ZM980.053,562.184C980.053,562.568 980.341,562.76 980.917,562.76C982.261,562.76 983.989,562.088 986.101,560.744C988.213,559.4 990.421,557.816 992.725,555.992C995.029,554.168 997.141,552.344 999.061,550.52C1000.98,548.696 1002.33,547.304 1003.09,546.344C1003.67,545.768 1004.1,545.144 1004.39,544.472C1004.68,543.8 1005.01,543.08 1005.4,542.312L1006.26,541.16C1007.99,539.048 1009.76,536.696 1011.59,534.104C1013.41,531.512 1014.71,528.968 1015.48,526.472C1016.82,524.168 1017.88,522.056 1018.64,520.136C1019.41,518.216 1019.8,515.912 1019.8,513.224C1019.8,512.648 1019.7,511.832 1019.51,510.776C1019.32,509.72 1019.03,509 1018.64,508.616L1011.73,497.96C1011.35,497.576 1010.87,497.192 1010.29,496.808C1009.14,496.04 1008.57,495.464 1008.57,495.08C1007.03,492.008 1003.96,489.752 999.349,488.312C994.741,486.872 989.941,486.152 984.949,486.152C979.573,486.152 974.821,486.968 970.693,488.6C966.565,490.232 964.501,492.776 964.501,496.232C964.501,496.616 964.549,496.904 964.645,497.096C964.741,497.288 964.789,497.576 964.789,497.96L978.901,560.168C978.901,560.744 979.285,561.416 980.053,562.184ZM1001.65,456.776C1004.53,456.776 1007.99,457.304 1012.02,458.36C1016.05,459.416 1019.41,460.424 1022.1,461.384C1022.87,461.768 1023.35,462.056 1023.54,462.248C1023.73,462.44 1024.21,462.536 1024.98,462.536C1024.98,462.152 1024.4,461.576 1023.25,460.808C1022.1,460.04 1020.81,459.32 1019.37,458.648C1017.93,457.976 1016.53,457.352 1015.19,456.776C1013.85,456.2 1012.88,455.816 1012.31,455.624C1011.35,455.24 1010.34,455.096 1009.28,455.192C1008.23,455.288 1007.22,455.144 1006.26,454.76L994.741,454.76C994.549,454.76 993.781,454.904 992.437,455.192C991.093,455.48 990.037,455.72 989.269,455.912C987.925,456.296 986.533,456.824 985.093,457.496C983.653,458.168 982.453,459.08 981.493,460.232L982.357,460.52C983.317,460.52 984.133,460.376 984.805,460.088C985.477,459.8 986.197,459.464 986.965,459.08C988.309,458.696 989.557,458.504 990.709,458.504C991.861,458.504 993.205,458.312 994.741,457.928C996.277,457.352 997.381,457.016 998.053,456.92C998.725,456.824 999.925,456.776 1001.65,456.776ZM969.685,465.128C969.301,465.512 969.109,465.8 969.109,465.992L969.109,466.856C969.685,466.856 970.165,466.76 970.549,466.568L969.685,465.128Z" style="fill-rule:nonzero;"/>
                <path d="M1095.25,644.264L1095.25,638.792C1095.25,637.256 1095.2,635.624 1095.11,633.896C1095.01,632.168 1094.58,630.536 1093.81,629C1093.43,627.848 1092.85,625.256 1092.09,621.224C1091.32,617.192 1090.55,613.016 1089.78,608.696C1089.01,604.376 1088.34,600.488 1087.77,597.032C1087.19,593.576 1086.81,591.848 1086.61,591.848C1085.65,585.128 1084.84,578.36 1084.16,571.544C1083.49,564.728 1082.96,557.96 1082.58,551.24C1082.2,547.976 1081.67,544.568 1081,541.016C1080.33,537.464 1079.99,534.056 1079.99,530.792L1079.99,529.352L1079.12,524.168L1079.12,523.016C1079.12,521.48 1078.74,519.752 1077.97,517.832C1077.2,515.912 1076.82,513.896 1076.82,511.784C1076.82,511.592 1077.16,511.304 1077.83,510.92C1078.5,510.536 1078.93,510.248 1079.12,510.056L1096.12,494.504C1096.69,493.928 1096.88,493.304 1096.69,492.632C1096.5,491.96 1096.79,491.336 1097.56,490.76C1098.52,490.184 1099.77,489.608 1101.3,489.032C1102.84,488.456 1103.61,487.592 1103.61,486.44C1105.14,485.672 1107.2,485 1109.8,484.424C1112.39,483.848 1115.03,483.416 1117.72,483.128C1120.4,482.84 1122.95,482.648 1125.35,482.552C1127.75,482.456 1129.53,482.408 1130.68,482.408C1133.75,482.408 1136.92,482.648 1140.18,483.128C1143.44,483.608 1147.29,483.848 1151.7,483.848L1154.29,483.848C1154.87,483.848 1156.21,483.8 1158.33,483.704C1160.44,483.608 1162.74,483.512 1165.24,483.416C1167.73,483.32 1170.04,483.224 1172.15,483.128C1174.26,483.032 1175.61,482.984 1176.18,482.984L1179.06,482.984C1183.48,482.984 1188.23,483.176 1193.32,483.56C1198.4,483.944 1202.96,484.904 1207,486.44C1207,487.208 1207.24,487.784 1207.72,488.168C1208.2,488.552 1208.73,488.888 1209.3,489.176C1209.88,489.464 1210.4,489.8 1210.88,490.184C1211.37,490.568 1211.61,491.144 1211.61,491.912C1210.26,491.912 1208.87,491.768 1207.43,491.48C1205.99,491.192 1204.5,491.048 1202.96,491.048C1201.05,491.048 1200.09,491.72 1200.09,493.064C1200.09,493.832 1200.81,494.504 1202.25,495.08C1203.68,495.656 1204.6,495.944 1204.98,495.944C1204.98,496.328 1205.32,496.568 1205.99,496.664C1206.66,496.76 1207,497 1207,497.384C1205.46,497.384 1204.5,497.528 1204.12,497.816C1203.73,498.104 1203.35,498.728 1202.96,499.688C1203.35,499.688 1203.54,499.88 1203.54,500.264C1203.54,500.648 1203.16,500.888 1202.39,500.984C1201.62,501.08 1200.81,501.176 1199.94,501.272C1199.08,501.368 1198.26,501.512 1197.49,501.704C1196.73,501.896 1196.25,502.28 1196.05,502.856L1197.49,502.856C1197.49,503.432 1197.25,503.864 1196.77,504.152C1196.29,504.44 1196.05,504.968 1196.05,505.736C1196.05,506.504 1196.44,506.84 1197.2,506.744C1197.97,506.648 1198.55,506.792 1198.93,507.176C1197.2,507.368 1194.57,507.512 1191.01,507.608C1187.46,507.704 1184.92,508.04 1183.38,508.616C1182.81,508.616 1182.52,509.192 1182.52,510.344C1182.52,511.112 1182.04,511.496 1181.08,511.496C1176.66,512.264 1172.2,512.744 1167.68,512.936C1163.17,513.128 1158.71,513.512 1154.29,514.088C1151.61,514.28 1148.73,514.664 1145.65,515.24C1142.58,515.816 1139.8,516.2 1137.3,516.392L1135,516.392C1132.88,516.584 1131.01,516.824 1129.38,517.112C1127.75,517.4 1125.88,518.216 1123.77,519.56C1123.77,519.944 1124.01,521.144 1124.49,523.16C1124.96,525.176 1125.4,526.184 1125.78,526.184C1125.97,527.72 1126.21,529.208 1126.5,530.648C1126.79,532.088 1127.12,533.576 1127.51,535.112C1127.51,535.304 1127.61,535.64 1127.8,536.12C1127.99,536.6 1128.37,536.936 1128.95,537.128C1130.49,537.128 1132.12,536.84 1133.85,536.264C1135.57,535.688 1137.2,535.304 1138.74,535.112C1146.81,533.576 1154.82,532.328 1162.79,531.368C1170.76,530.408 1178.87,529.928 1187.12,529.928L1194.33,542.888L1188.85,554.408C1187.89,554.6 1187.03,554.888 1186.26,555.272C1185.49,555.656 1183.09,556.04 1179.06,556.424C1177.33,556.424 1176.18,556.712 1175.61,557.288C1175.03,557.864 1174.07,558.344 1172.73,558.728C1171.77,559.112 1170.42,559.544 1168.69,560.024C1166.96,560.504 1165.09,560.984 1163.08,561.464C1161.06,561.944 1159.14,562.376 1157.32,562.76C1155.49,563.144 1154.1,563.336 1153.14,563.336C1152.37,563.336 1150.93,563.528 1148.82,563.912C1146.71,564.296 1144.5,564.728 1142.2,565.208C1139.89,565.688 1137.78,566.216 1135.86,566.792C1133.94,567.368 1132.79,567.848 1132.4,568.232L1132.4,569.96C1132.4,572.072 1132.69,574.088 1133.27,576.008C1133.85,577.928 1134.13,579.944 1134.13,582.056L1134.13,583.496L1140.47,615.176L1154.29,615.176C1157.75,614.408 1161.35,613.928 1165.09,613.736C1168.84,613.544 1172.44,613.256 1175.89,612.872C1179.35,612.488 1182.71,612.008 1185.97,611.432C1189.24,610.856 1192.5,610.568 1195.77,610.568L1197.78,610.568C1197.97,610.952 1198.55,611.144 1199.51,611.144C1200.47,611.144 1202.15,611.192 1204.55,611.288C1206.95,611.384 1208.53,611.624 1209.3,612.008C1209.3,612.968 1209.78,613.832 1210.74,614.6C1211.7,615.368 1212.18,615.944 1212.18,616.328C1211.41,616.52 1210.45,616.664 1209.3,616.76C1208.15,616.856 1207.29,617.096 1206.71,617.48L1208.15,618.632C1207,621.896 1205.99,624.776 1205.12,627.272C1204.26,629.768 1202.96,632.12 1201.24,634.328C1199.51,636.536 1196.96,638.648 1193.61,640.664C1190.25,642.68 1185.4,644.744 1179.06,646.856C1178.1,647.24 1177.43,647.72 1177.05,648.296C1176.66,648.872 1176.09,649.352 1175.32,649.736C1172.63,649.736 1170.61,649.928 1169.27,650.312C1167.92,650.696 1165.91,651.08 1163.22,651.464C1162.84,651.464 1162.26,651.512 1161.49,651.608C1160.73,651.704 1160.25,651.752 1160.05,651.752L1149.11,651.752C1148.92,651.944 1148.63,652.04 1148.25,652.04C1148.05,652.04 1147.86,652.136 1147.67,652.328L1104.76,656.936C1104.57,657.128 1104.13,657.464 1103.46,657.944C1102.79,658.424 1102.26,658.664 1101.88,658.664C1101.68,658.472 1101.49,658.376 1101.3,658.376C1100.73,658.376 1100.34,658.28 1100.15,658.088L1095.25,644.264Z" style="fill-rule:nonzero;"/>
                <path d="M1255.67,610.28C1252.6,610.28 1248.85,610.04 1244.44,609.56C1240.02,609.08 1237.05,608.36 1235.51,607.4C1233.97,606.248 1232.82,605.096 1232.05,603.944C1231.29,602.792 1230.42,602.12 1229.46,601.928L1229.75,590.408C1230.9,588.104 1231.48,585.896 1231.48,583.784L1231.48,582.056C1231.86,582.056 1232.34,581.576 1232.92,580.616C1233.49,579.656 1234.55,579.176 1236.09,579.176C1236.28,579.176 1237.81,579.272 1240.69,579.464C1243.57,579.656 1247.51,579.896 1252.5,580.184C1257.49,580.472 1263.3,580.712 1269.92,580.904C1276.55,581.096 1283.61,581.192 1291.09,581.192C1302.42,581.192 1314.09,581.144 1326.09,581.048C1338.09,580.952 1348.98,580.904 1358.77,580.904L1365.4,580.904C1369.43,580.904 1373.08,581 1376.34,581.192C1379.61,581.384 1381.24,581.864 1381.24,582.632C1381.24,583.016 1381.19,583.448 1381.09,583.928C1381,584.408 1380.95,584.84 1380.95,585.224C1380.95,585.416 1381.33,585.752 1382.1,586.232C1382.87,586.712 1383.35,587.144 1383.54,587.528C1383.54,587.912 1383.4,588.2 1383.11,588.392C1382.82,588.584 1382.68,588.872 1382.68,589.256C1382.68,589.832 1383.01,590.312 1383.68,590.696C1384.36,591.08 1384.69,591.464 1384.69,591.848L1383.83,592.712C1383.83,593.096 1383.92,593.336 1384.12,593.432C1384.31,593.528 1384.5,593.768 1384.69,594.152C1384.88,594.536 1385.08,594.824 1385.27,595.016C1384.69,595.016 1384.4,595.208 1384.4,595.592C1384.4,596.168 1384.6,596.648 1384.98,597.032C1385.37,597.416 1385.56,597.8 1385.56,598.184C1385.56,598.76 1385.37,599.048 1384.98,599.048L1383.83,599.048C1383.44,599.048 1383.06,599.192 1382.68,599.48C1382.29,599.768 1382.1,600.392 1382.1,601.352C1382.1,602.504 1382.29,603.464 1382.68,604.232C1381.91,604.424 1380.76,604.664 1379.22,604.952C1377.68,605.24 1376.92,605.864 1376.92,606.824C1376.92,607.976 1377.11,608.648 1377.49,608.84C1376.53,609.416 1375.19,609.848 1373.46,610.136C1371.73,610.424 1369.96,610.712 1368.13,611C1366.31,611.288 1364.53,611.528 1362.81,611.72C1361.08,611.912 1359.64,612.104 1358.49,612.296C1357.72,612.296 1356.47,612.248 1354.74,612.152C1353.01,612.056 1351.09,612.008 1348.98,612.008C1344.57,612.008 1341.54,612.104 1339.91,612.296C1338.28,612.488 1336.12,612.584 1333.43,612.584C1333.05,612.2 1329.49,612.008 1322.77,612.008C1319.89,612.008 1316.68,612.056 1313.12,612.152C1309.57,612.248 1306.12,612.296 1302.76,612.296C1299.4,612.296 1296.33,612.344 1293.54,612.44C1290.76,612.536 1288.69,612.584 1287.35,612.584L1285.62,612.584C1283.32,612.584 1280.58,612.536 1277.41,612.44C1274.25,612.344 1271.22,612.2 1268.34,612.008C1265.46,611.816 1262.96,611.576 1260.85,611.288C1258.74,611 1257.68,610.664 1257.68,610.28L1255.67,610.28Z" style="fill-rule:nonzero;"/>
                <path d="M1417.53,689.48C1417.53,688.904 1417.57,688.088 1417.67,687.032C1417.77,685.976 1417.81,685.352 1417.81,685.16L1417.81,683.576C1417.81,682.712 1417.86,681.8 1417.96,680.84C1418.05,679.88 1418.15,678.968 1418.25,678.104C1418.34,677.24 1418.39,676.712 1418.39,676.52L1418.39,673.352C1418.39,662.408 1418.96,651.608 1420.12,640.952C1421.27,630.296 1422.13,619.496 1422.71,608.552C1422.9,607.208 1423.09,606.056 1423.29,605.096C1423.48,604.136 1423.57,602.984 1423.57,601.64L1423.57,596.024C1423.57,595.352 1423.77,594.728 1424.15,594.152C1424.15,593.96 1424.29,593.576 1424.58,593C1424.87,592.424 1425.01,592.04 1425.01,591.848L1425.01,586.376C1424.25,585.224 1423.38,584.504 1422.42,584.216C1421.46,583.928 1420.88,582.92 1420.69,581.192C1419.54,579.464 1418.44,577.736 1417.38,576.008C1416.33,574.28 1415.03,572.456 1413.49,570.536C1411.19,565.736 1408.79,560.984 1406.29,556.28C1403.8,551.576 1401.01,547.016 1397.94,542.6C1398.13,542.216 1397.75,541.304 1396.79,539.864C1395.83,538.424 1395.25,537.512 1395.06,537.128C1394.29,536.36 1393.53,535.016 1392.76,533.096C1391.99,531.176 1391.12,530.12 1390.16,529.928C1387.29,525.512 1384.55,521 1381.96,516.392C1379.37,511.784 1376.73,507.272 1374.04,502.856C1372.5,500.744 1370.92,498.68 1369.29,496.664C1367.65,494.648 1366.07,492.488 1364.53,490.184C1364.53,489.416 1364.77,488.696 1365.25,488.024C1365.73,487.352 1365.97,486.632 1365.97,485.864C1365.97,484.904 1365.49,484.04 1364.53,483.272L1367.7,480.104C1368.09,479.528 1368.37,478.856 1368.57,478.088C1368.76,477.32 1369.29,476.216 1370.15,474.776C1371.01,473.336 1372.36,471.56 1374.18,469.448C1376.01,467.336 1378.74,464.648 1382.39,461.384C1383.16,461.384 1384.02,461.528 1384.98,461.816C1385.94,462.104 1386.9,462.44 1387.86,462.824C1388.82,463.4 1389.88,463.88 1391.03,464.264C1391.03,463.304 1390.6,462.92 1389.73,463.112C1388.87,463.304 1388.34,462.92 1388.15,461.96C1388.15,461.576 1388.44,461.192 1389.01,460.808C1389.59,460.424 1389.97,460.232 1390.16,460.232C1391.51,460.616 1393,461.48 1394.63,462.824C1396.26,464.168 1397.56,465.224 1398.52,465.992C1400.44,467.528 1402.5,469.352 1404.71,471.464C1406.92,473.576 1408.69,475.784 1410.04,478.088C1411,479.816 1411.86,481.592 1412.63,483.416C1413.4,485.24 1414.36,486.92 1415.51,488.456C1415.7,488.456 1416.04,488.696 1416.52,489.176C1417,489.656 1417.24,489.992 1417.24,490.184C1418.58,491.912 1419.78,493.784 1420.84,495.8C1421.89,497.816 1423.09,499.784 1424.44,501.704C1427.12,505.16 1429.62,508.76 1431.92,512.504C1434.23,516.248 1436.44,520.04 1438.55,523.88L1444.31,532.808C1446.23,532.808 1447.91,531.8 1449.35,529.784C1450.79,527.768 1452.09,526.184 1453.24,525.032C1453.24,524.84 1453.57,524.12 1454.25,522.872C1454.92,521.624 1455.73,520.184 1456.69,518.552C1457.65,516.92 1458.57,515.432 1459.43,514.088C1460.29,512.744 1460.92,511.88 1461.3,511.496C1461.3,511.304 1461.49,511.112 1461.88,510.92C1462.26,510.728 1462.55,510.632 1462.74,510.632C1464.09,509.48 1465.24,507.944 1466.2,506.024C1467.16,504.104 1468.12,502.376 1469.08,500.84C1471.96,496.616 1474.84,492.296 1477.72,487.88C1480.6,483.464 1483.67,479.336 1486.93,475.496C1489.05,473.192 1491.11,470.792 1493.12,468.296C1495.14,465.8 1497.2,463.496 1499.32,461.384L1499.89,461.384C1500.09,461.384 1500.18,461.288 1500.18,461.096L1502.77,457.928L1503.92,457.928C1505.65,461.192 1507.48,463.064 1509.4,463.544C1511.32,464.024 1513.24,464.504 1515.16,464.984C1517.08,465.464 1518.76,466.472 1520.2,468.008C1521.64,469.544 1522.74,473 1523.51,478.376C1523.51,479.144 1523.41,480.056 1523.22,481.112C1523.03,482.168 1522.93,482.984 1522.93,483.56C1522.93,484.136 1522.45,485 1521.49,486.152C1520.53,487.304 1519.43,488.504 1518.18,489.752C1516.93,491 1515.68,492.152 1514.44,493.208C1513.19,494.264 1512.28,495.08 1511.7,495.656L1508.82,499.4C1505.75,502.088 1502.96,505.4 1500.47,509.336C1497.97,513.272 1495.67,516.872 1493.56,520.136C1493.37,520.136 1492.98,520.52 1492.4,521.288C1491.83,522.056 1491.44,522.536 1491.25,522.728C1487.99,527.144 1485.11,531.704 1482.61,536.408C1480.12,541.112 1477.43,545.768 1474.55,550.376C1473.59,551.72 1472.73,553.112 1471.96,554.552C1471.19,555.992 1470.33,557.48 1469.37,559.016C1469.37,559.208 1469.32,559.352 1469.22,559.448C1469.12,559.544 1469.08,559.784 1469.08,560.168L1469.08,561.032C1468.5,562.376 1467.54,563.72 1466.2,565.064C1464.85,566.408 1464.18,567.944 1464.18,569.672C1464.18,571.592 1464.28,573.464 1464.47,575.288C1464.66,577.112 1464.76,579.08 1464.76,581.192C1464.76,594.248 1464.18,606.92 1463.03,619.208C1463.03,619.592 1462.88,620.984 1462.6,623.384C1462.31,625.784 1462.07,627.56 1461.88,628.712C1460.92,635.048 1460.39,641.432 1460.29,647.864C1460.2,654.296 1459.67,660.584 1458.71,666.728L1458.71,688.328C1457.94,688.52 1457.41,689.048 1457.12,689.912C1456.84,690.776 1456.69,691.496 1456.69,692.072C1456.69,692.648 1456.84,693.272 1457.12,693.944C1457.41,694.616 1457.56,695.24 1457.56,695.816C1457.56,696.2 1457.32,696.728 1456.84,697.4C1456.36,698.072 1455.83,698.408 1455.25,698.408L1454.1,698.12C1453.72,698.12 1452.61,698.36 1450.79,698.84C1448.96,699.32 1447.96,699.656 1447.77,699.848C1447.38,700.232 1446.95,700.952 1446.47,702.008C1445.99,703.064 1445.65,703.784 1445.46,704.168C1445.08,704.744 1444.69,705.032 1444.31,705.032C1443.54,705.032 1442.96,704.552 1442.58,703.592C1440.28,704.552 1438.26,705.128 1436.53,705.32C1434.81,705.512 1432.88,706.376 1430.77,707.912C1430.2,707.912 1429.62,707.768 1429.05,707.48C1428.47,707.192 1427.8,707.048 1427.03,707.048C1425.88,707.048 1424.63,707.432 1423.29,708.2C1421.94,708.968 1421.17,709.352 1420.98,709.352C1420.6,709.352 1420.26,708.92 1419.97,708.056C1419.68,707.192 1419.4,706.184 1419.11,705.032C1418.82,703.88 1418.58,702.776 1418.39,701.72C1418.2,700.664 1418.1,700.04 1418.1,699.848C1418.1,699.464 1418.05,698.456 1417.96,696.824C1417.86,695.192 1417.81,694.184 1417.81,693.8C1417.81,693.608 1417.77,692.936 1417.67,691.784C1417.57,690.632 1417.53,689.864 1417.53,689.48Z" style="fill-rule:nonzero;"/>
            </g>
        </g>
    </g>
</svg>
